Patient4_TMGait_0pt7_01_right_32_EMG.mot
version=1
nRows=33
nColumns=33
inDegrees=no
endheader
time	1LAddLong	2LGlutMax	3LGlutMed	4LIliopsoas	5LSemiMemb	6LBicFemLong	7LRecFem	8LVastMed	9LVastLat	10LGasMed	11LTibAnt	12lTibPost	13LPeroneusLong	14LSol	15LExtDigLong	16LFlexDigLong	17RAddLong	18RGlutMax	19RGlutMed	20RIliopsoas	21RSemiMemb	22RBicFemLong	23RRecFem	24RVastMed	25RVastLat	26RGasMed	27RTibAnt	28RTibPost	29RPeroneusLong	30RSol	31RExtDigLong	32RFlexDigLong
37.195	-0.011597	0.47714	0.070038	0.016785	-0.032654	-0.25116	0.038757	-0.007477	0.03418	0.014496	0.035553	0.011597	0.014496	0.035553	0.015259	0.007172	-0.031281	0.19028	0.15045	-0.000305	0.024567	0.024567	-0.2356	0.041504	-0.076599	0.011902	-0.071869	-0.001526	-0.055084	0.041504	-0.003357	-0.011292
37.196	-0.027618	0.47012	0.078888	0.003815	-0.088959	-0.086823	0.049438	-0.010223	0.036926	0.016327	0.005798	0.009308	-0.02121	0.033264	0.011902	-0.003357	0.027313	0.18036	0.32349	-0.04837	0.11536	-0.003662	-0.30197	-0.17197	-0.058289	0.008392	-0.21072	-0.00412	-0.049896	0.027618	0	-0.011902
37.197	-0.032806	0.46661	0.076752	0.013275	-0.13763	0.021515	0.043335	-0.000458	0.023956	0.015106	0.011292	0.00885	-0.058594	0.043488	0.01709	0.005341	0.0383	0.18143	-0.26398	-0.02243	0.17944	-0.092926	-0.3418	-0.22873	-0.016174	0.00885	-0.33936	-0.001984	0.024872	-0.045013	-0.003357	-0.011902
37.198	-0.033112	0.4007	0.080719	0.013885	-0.12299	0.060577	0.078278	0.014191	0.012512	0.014801	-0.003357	0.018311	0.12268	0.042267	0.018158	0.001984	0.037537	0.18585	-0.33341	0.011749	0.2417	-0.21057	-0.32486	-0.11246	0.013123	0.006714	-0.2153	0.001984	0.033417	-0.11459	-0.003052	-0.010376
37.199	-0.0354	0.32654	0.099792	0.002289	-0.066376	0.015717	0.084534	-0.002594	-0.003815	0.018463	0.025787	0.006104	0.25101	0.049438	0.015106	0.007629	0.014954	0.16571	-0.13382	-0.019531	0.26215	-0.18509	-0.26855	0.042572	0.013885	0.00946	-0.078583	0.001678	-0.009613	-0.18738	-0.002289	-0.007019
37.2	0.00061	0.20691	0.11459	0.010834	-0.047302	-0.084686	0.045471	-0.003967	0.013123	0.023956	-0.050201	0.005341	0.13153	0.071106	0.0177	-0.001221	-0.011902	0.13245	-0.28214	0.00061	0.37369	0.000763	-0.24582	0.11505	0.000763	0.005341	-0.24963	0.002899	-0.004578	-0.28336	-0.002747	-0.002747
37.201	0.043945	0.22339	0.079956	0.001984	0.11688	-0.15884	0.007782	-0.00412	0.024261	0.03891	0.014496	0.006714	0.048523	0.036011	0.003052	0.006256	-0.032043	0.10819	-0.51315	0.058746	0.39261	0.099487	-0.24475	0.056915	0.025024	0.00412	-0.10254	0.001373	-0.053558	-0.30868	-0.001526	-0.009613
37.202	0.054474	0.11353	0.093842	-0.021362	0.23956	-0.077972	0.001373	-0.001373	0.057983	0.002594	0.000763	-0.002136	0.002136	0.043793	0.005188	0.00351	-0.041199	0.083313	-0.25635	0.034943	0.19089	0.089569	-0.47134	0.007629	0.068512	-0.007935	0.11063	-0.003967	-0.071259	-0.11246	-0.00473	-0.007477
37.203	0.046997	0.11276	0.078888	-0.001831	0.22385	-0.14618	0.043793	0.016174	0.003357	0.008392	-0.00351	0.011292	0.027313	0.064087	0.017395	-0.000305	-0.012054	0.11902	0.43152	0.028839	0.25696	0.002594	-0.44815	-0.030823	0.06958	0.00061	0.15976	0.002747	0.018768	0.10101	-0.002899	-0.011597
37.204	0.008087	0.048676	0.079803	0.013123	0.17456	-0.21637	0.072784	0.020905	-0.007782	0.011139	-0.010223	0.01297	0.26489	0.033722	0.010529	0.007019	0.016479	0.064392	0.60303	0.027313	0.2446	-0.10986	-0.29709	-0.020752	0.028992	-0.009613	0.13367	-0.005646	0.092316	0.14145	-0.00351	-0.011902
37.205	0.003662	0.103	0.092621	0.010834	0.11963	-0.05249	0.077362	0.034943	0.015106	0.006256	-0.038147	0.004272	0.15533	0.063324	0.01236	-0.001373	-0.001678	0.059662	0.23392	0.071716	0.15106	-0.1059	-0.33554	0.045013	0.040894	-0.001984	0.042419	-0.004425	0.1329	0.09079	-0.002289	-0.012207
37.206	0.006256	0.26642	0.079803	0.007324	0.068207	-0.10559	0.032043	0.026093	0.06134	0.010986	-0.050812	0.003815	0.07309	0.047607	0.009308	0.005493	-0.02594	0.1181	0.026703	0.07309	0.22247	0.054474	-0.32181	0.003967	0.020905	0.00061	0.033722	-0.002747	0.055084	0.10941	-0.002747	-0.025177
37.207	-0.007019	0.43472	0.056763	-0.007324	0.015259	-0.23773	-0.003815	0.016022	0.091858	0.030823	-0.019531	0.003815	-0.066528	0.01297	-0.033875	0.007019	0.005951	0.058746	-0.034943	0.033722	0.31158	0.21011	-0.20111	-0.088806	-0.015106	0.002289	0.029907	-0.007477	-0.029297	0.12344	-0.000305	-0.016937
37.208	-0.00885	0.43259	0.048523	0.001678	-0.013885	-0.43045	-0.059204	-0.014038	0.1471	-0.008545	0.037994	0.002136	0.089417	0.037689	-0.000305	0.00946	-0.041351	0.065918	-0.019226	0.002289	0.25314	0.31769	-0.23819	-0.006104	0.001526	0.01236	0.059204	-0.005798	-0.097809	0.025177	-0.00351	-0.019379
37.209	-0.005188	0.39124	0.041046	0.013733	0.015869	-0.31494	-0.089874	-0.03418	0.2124	0.008698	0.059052	0.019073	0.14648	0.1207	0.033112	0.006104	-0.018921	0.25421	-0.32776	0.015106	0.14908	0.20767	-0.20325	-0.03952	0.002747	0.010986	0.00351	-0.001984	-0.037384	-0.17777	-0.004578	-0.005035
37.21	-0.002289	0.38101	0.011749	0.008087	0.080109	-0.18723	-0.0914	-0.047455	0.18478	-0.028381	-0.003815	0.003967	0.2626	0.19852	0.055695	0.01358	-0.001831	0.20859	-0.078125	0.002136	0.023956	0.10223	-0.2153	-0.083313	0.066833	0.015106	-0.076752	0.000305	0.024109	-0.41519	-0.004425	-0.011292
37.211	-0.014191	0.34912	0.022736	-0.001068	0.085907	-0.065918	-0.061493	-0.027313	0.15289	-0.069733	-0.018311	0.008392	0.29327	0.23697	0.060272	0.000763	0.023346	0.13016	0.13275	-0.019226	-0.023041	0.089722	-0.21729	-0.13138	0.30029	0.025635	-0.15595	-0.001221	0.11307	-0.38315	-0.005798	-0.00885
37.212	-0.024109	0.43915	0.006714	0.006866	0.06485	0.11536	0.046234	-0.016174	0.051727	-0.045624	-0.002136	0.00946	-0.098114	0.20264	0.004272	-0.000305	0.016479	0.11139	0.25345	-0.058441	0.16419	0.007935	-0.23651	-0.082855	0.35996	0.003815	-0.18356	-0.010986	0.17151	0.050964	-0.003052	-0.012817
37.213	-0.022278	0.5629	-0.010071	0.011749	0.071564	0.25436	0.1503	-0.008392	-0.016174	0.014954	0.001221	0.008698	-0.37933	0.023804	-0.094299	-0.016327	0.041199	0.10284	0.15823	-0.072937	0.45288	-0.075378	-0.22598	-0.11887	0.35065	-0.002594	-0.33173	0.001068	0.074463	0.38238	-0.001526	-0.001526
37.214	-0.014343	0.60699	-0.003662	0.00351	-0.006409	0.27451	0.11704	-0.002747	-0.035553	0.063324	-0.004578	0.011749	-0.045929	-0.18265	-0.17227	-0.003204	0.044708	0.10284	-0.1474	-0.12085	0.40741	-0.16388	-0.16312	-0.06485	0.32593	-0.009003	-0.25757	0.000458	-0.03891	0.51605	-0.018616	-0.004272
37.215	0.000916	0.63004	-0.081635	-0.001831	-0.062866	0.20371	0.11108	0.000763	-0.059052	0.051727	-0.014801	0.009766	0.19898	-0.19379	-0.14557	-0.005188	0.017395	0.068817	-0.29862	-0.059204	0.091705	-0.29053	-0.23453	-0.044403	0.23346	-0.007019	-0.002594	-0.000458	-0.10696	0.27069	-0.004425	0.000763
37.216	0.01236	0.71182	-0.091248	-0.002136	-0.023193	0.18387	0.050964	-0.001831	0.026703	0.027313	-0.007782	0.01358	0.15656	-0.091858	-0.036774	-0.004883	-0.009308	0.045013	-0.21484	-0.005951	0.23621	-0.42419	-0.25971	-0.031281	-0.82367	-0.00061	0.42404	0.001068	-0.045471	0.18234	-0.000458	-0.000305
37.217	-0.001984	0.73883	-0.13855	0.006866	0.014038	0.1358	0.045929	-0.008392	0.017242	-0.007935	-0.006714	0.016937	0.098877	-0.003662	0.010681	0.002289	-0.001068	0.15625	-0.18112	0.020599	0.027771	-0.37781	-0.35599	-0.045013	-0.61218	-0.009613	0.56244	-0.005341	-0.081787	0.28381	-0.004425	-0.002289
37.218	-0.009308	0.76508	-0.01358	0.01358	0.00351	0.20386	0.032654	0.006104	-0.063782	0.002289	-0.003815	-0.000458	-0.010681	0.030823	0.013428	-0.002136	-0.0177	0.18829	-0.13062	0.1033	-0.054016	-0.26535	-0.31998	-0.014801	-0.18249	-0.003662	0.11414	-0.005188	-0.086823	0.32333	0.004425	-0.004883
37.219	-0.009155	0.78888	0.19318	0.006714	0.019379	0.20172	-0.020294	0.012665	-0.13687	0.020447	0.008545	0.018005	-0.097351	0.009918	-0.017242	-0.01297	-0.027008	0.13794	-0.28549	0.14771	0.034485	-0.12451	-0.24216	0.060425	-0.063324	0.001678	-0.042114	-0.008087	-0.037994	0.058594	-0.000458	-0.005188
37.22	-0.020142	0.78384	0.14694	0.009308	-0.041199	0.23712	-0.071716	0.018616	-0.11917	0.003967	0.003815	0.004578	-0.11566	0.020752	0.006561	0.010071	-0.008392	0.12375	-0.45227	0.20752	0.10666	-0.043793	-0.20172	0.03891	-0.044861	0.002289	-0.014191	0.00061	0.033722	-0.17578	-0.00351	-0.002899
37.221	-0.005798	0.72159	0.092163	0.00824	-0.04303	0.03418	-0.046539	0.004272	-0.027313	0.018921	-0.003204	0.007782	-0.12238	0.028076	0.017853	-0.003967	0.025787	0.059357	-0.3746	0.11505	0.071106	0.002747	-0.23377	-0.047302	-0.036316	0.006561	0.010834	-0.004425	0.06134	-0.33218	-0.003662	-0.006409
37.222	0.005035	0.68893	0.10468	0.01297	0.014801	0.14084	-0.008392	-0.007172	0.11627	0.022888	-0.000305	0.018463	-0.11322	0.036163	0.024109	-0.010071	0.039215	0.06546	-0.21637	0.002899	0.07431	0.042725	-0.20172	-0.001068	-0.035553	0.008087	0.051727	0.004425	-0.042572	-0.30395	-0.004578	-0.010376
37.223	-0.004578	0.70541	0.0737	0.008698	0.035095	0.27252	0.066223	-0.005798	0.15671	0.03891	0.020142	0.012665	-0.079803	0.035858	0.032501	-0.003357	0.052032	0.043335	-0.28793	-0.010071	0.068207	0.059814	-0.17868	-0.005341	-0.015564	0.002747	0.11017	0.008392	-0.2359	-0.38361	-0.004425	-0.006409
37.224	-0.032806	0.69809	0.061188	-0.004578	-0.05249	0.24826	0.14389	0.008087	0.14679	0.051422	0.002594	0.005341	-0.095978	0.041809	0.058289	-0.007782	0.03418	0.093231	-0.27054	0.028381	0.070343	0.053406	-0.20248	-0.030823	-0.009155	-0.000153	0.11688	0.00473	-0.26535	-0.51819	-0.00412	-0.016174
37.225	-0.037079	0.62805	0.041962	-0.005493	-0.058899	0.067902	0.17883	0.032501	0.13062	0.063782	-0.089569	0.016327	-0.16129	0.069275	0.070496	0.001526	0.014801	0.09552	-0.27329	0.032196	0.029449	-0.073395	-0.15121	-0.068512	-0.013123	0.001068	-0.001984	-0.001984	-0.28168	-0.68756	-0.003967	-0.017548
37.226	-0.033264	0.63187	-0.002441	0.008698	-0.041962	-0.13565	0.15198	0.027618	0.25116	0.072784	-0.16037	0.006561	-0.19791	0.089722	0.10788	0.007782	-0.048676	0.11398	-0.18936	-0.028076	0.007172	0.055542	-0.16769	-0.030975	0.007629	-0.002441	-0.12238	-0.11063	0.005798	-0.45792	-0.005798	-0.023041
37.227	-0.002289	0.62698	0.003052	0.018005	0.032501	-0.4335	0.103	-0.003662	0.28824	0.052643	-0.083466	0.006714	-0.14572	0.10269	0.081024	0.011444	-0.08194	0.10178	-0.20981	-0.025787	-0.061951	0.2092	-0.16907	-0.032196	0.016327	0.001984	-0.11276	0.011444	0.14267	0.16144	-0.003357	-0.018921
